M48
; DRILL file {KiCad 7.0.2} date Sat Jun  3 14:59:17 2023
; FORMAT={-:-/ absolute / metric / decimal}
; #@! TF.CreationDate,2023-06-03T14:59:17-04:00
; #@! TF.GenerationSoftware,Kicad,Pcbnew,7.0.2
; #@! TF.FileFunction,Plated,1,2,PTH
FMAT,2
METRIC
; #@! TA.AperFunction,Plated,PTH,ComponentDrill
T1C1.000
%
G90
G05
T1
X48.26Y-66.675
X48.26Y-85.725
X48.26Y-104.775
X48.26Y-123.825
X50.8Y-66.675
X50.8Y-85.725
X50.8Y-104.775
X50.8Y-123.825
X53.34Y-66.675
X53.34Y-85.725
X53.34Y-104.775
X53.34Y-123.825
X60.96Y-47.625
X60.96Y-50.165
X60.96Y-52.705
X68.58Y-66.675
X68.58Y-85.725
X68.58Y-104.775
X68.58Y-123.825
X71.12Y-66.675
X71.12Y-85.725
X71.12Y-104.775
X71.12Y-123.825
X73.66Y-66.675
X73.66Y-85.725
X73.66Y-104.775
X73.66Y-123.825
X76.2Y-44.45
T0
M30
