%TF.GenerationSoftware,KiCad,Pcbnew,7.0.2*%
%TF.CreationDate,2023-06-03T15:00:15-04:00*%
%TF.ProjectId,Power distribution 3pin 1-to-8,506f7765-7220-4646-9973-747269627574,rev?*%
%TF.SameCoordinates,Original*%
%TF.FileFunction,Copper,L1,Top*%
%TF.FilePolarity,Positive*%
%FSLAX46Y46*%
G04 Gerber Fmt 4.6, Leading zero omitted, Abs format (unit mm)*
G04 Created by KiCad (PCBNEW 7.0.2) date 2023-06-03 15:00:15*
%MOMM*%
%LPD*%
G01*
G04 APERTURE LIST*
%TA.AperFunction,ComponentPad*%
%ADD10C,1.700000*%
%TD*%
%TA.AperFunction,ComponentPad*%
%ADD11R,1.700000X1.700000*%
%TD*%
%TA.AperFunction,ComponentPad*%
%ADD12O,1.700000X1.700000*%
%TD*%
%TA.AperFunction,Conductor*%
%ADD13C,1.500000*%
%TD*%
G04 APERTURE END LIST*
D10*
%TO.P,J10,1,Pin_1*%
%TO.N,registration*%
X76200000Y-44450000D03*
%TD*%
D11*
%TO.P,J9,1,Pin_1*%
%TO.N,Net-(J1-Pin_1)*%
X73660000Y-123825000D03*
D12*
%TO.P,J9,2,Pin_2*%
%TO.N,Net-(J1-Pin_2)*%
X71120000Y-123825000D03*
%TO.P,J9,3,Pin_3*%
%TO.N,Net-(J1-Pin_3)*%
X68580000Y-123825000D03*
%TD*%
D11*
%TO.P,J8,1,Pin_1*%
%TO.N,Net-(J1-Pin_1)*%
X73660000Y-104775000D03*
D12*
%TO.P,J8,2,Pin_2*%
%TO.N,Net-(J1-Pin_2)*%
X71120000Y-104775000D03*
%TO.P,J8,3,Pin_3*%
%TO.N,Net-(J1-Pin_3)*%
X68580000Y-104775000D03*
%TD*%
D11*
%TO.P,J7,1,Pin_1*%
%TO.N,Net-(J1-Pin_1)*%
X73660000Y-85725000D03*
D12*
%TO.P,J7,2,Pin_2*%
%TO.N,Net-(J1-Pin_2)*%
X71120000Y-85725000D03*
%TO.P,J7,3,Pin_3*%
%TO.N,Net-(J1-Pin_3)*%
X68580000Y-85725000D03*
%TD*%
D11*
%TO.P,J6,1,Pin_1*%
%TO.N,Net-(J1-Pin_1)*%
X73660000Y-66675000D03*
D12*
%TO.P,J6,2,Pin_2*%
%TO.N,Net-(J1-Pin_2)*%
X71120000Y-66675000D03*
%TO.P,J6,3,Pin_3*%
%TO.N,Net-(J1-Pin_3)*%
X68580000Y-66675000D03*
%TD*%
D11*
%TO.P,J5,1,Pin_1*%
%TO.N,Net-(J1-Pin_1)*%
X60960000Y-47625000D03*
D12*
%TO.P,J5,2,Pin_2*%
%TO.N,Net-(J1-Pin_2)*%
X60960000Y-50165000D03*
%TO.P,J5,3,Pin_3*%
%TO.N,Net-(J1-Pin_3)*%
X60960000Y-52705000D03*
%TD*%
D11*
%TO.P,J4,1,Pin_1*%
%TO.N,Net-(J1-Pin_1)*%
X48260000Y-66675000D03*
D12*
%TO.P,J4,2,Pin_2*%
%TO.N,Net-(J1-Pin_2)*%
X50800000Y-66675000D03*
%TO.P,J4,3,Pin_3*%
%TO.N,Net-(J1-Pin_3)*%
X53340000Y-66675000D03*
%TD*%
D11*
%TO.P,J3,1,Pin_1*%
%TO.N,Net-(J1-Pin_1)*%
X48260000Y-85725000D03*
D12*
%TO.P,J3,2,Pin_2*%
%TO.N,Net-(J1-Pin_2)*%
X50800000Y-85725000D03*
%TO.P,J3,3,Pin_3*%
%TO.N,Net-(J1-Pin_3)*%
X53340000Y-85725000D03*
%TD*%
D11*
%TO.P,J2,1,Pin_1*%
%TO.N,Net-(J1-Pin_1)*%
X48260000Y-104775000D03*
D12*
%TO.P,J2,2,Pin_2*%
%TO.N,Net-(J1-Pin_2)*%
X50800000Y-104775000D03*
%TO.P,J2,3,Pin_3*%
%TO.N,Net-(J1-Pin_3)*%
X53340000Y-104775000D03*
%TD*%
D11*
%TO.P,J1,1,Pin_1*%
%TO.N,Net-(J1-Pin_1)*%
X48260000Y-123825000D03*
D12*
%TO.P,J1,2,Pin_2*%
%TO.N,Net-(J1-Pin_2)*%
X50800000Y-123825000D03*
%TO.P,J1,3,Pin_3*%
%TO.N,Net-(J1-Pin_3)*%
X53340000Y-123825000D03*
%TD*%
D13*
%TO.N,registration*%
X76200000Y-44450000D02*
X74930000Y-44450000D01*
X76200000Y-44450000D02*
X77470000Y-44450000D01*
X76200000Y-44450000D02*
X76200000Y-45720000D01*
X76200000Y-44450000D02*
X76200000Y-43180000D01*
%TO.N,Net-(J1-Pin_1)*%
X67310000Y-47625000D02*
X60960000Y-47625000D01*
X73660000Y-53975000D02*
X67310000Y-47625000D01*
X73660000Y-66675000D02*
X73660000Y-53975000D01*
%TO.N,Net-(J1-Pin_2)*%
X66040000Y-50165000D02*
X60960000Y-50165000D01*
X71120000Y-55245000D02*
X66040000Y-50165000D01*
X71120000Y-66675000D02*
X71120000Y-55245000D01*
%TO.N,Net-(J1-Pin_3)*%
X64770000Y-52705000D02*
X60960000Y-52705000D01*
X68580000Y-56515000D02*
X64770000Y-52705000D01*
X68580000Y-66675000D02*
X68580000Y-56515000D01*
X57150000Y-52705000D02*
X60960000Y-52705000D01*
X53340000Y-56515000D02*
X57150000Y-52705000D01*
X53340000Y-66675000D02*
X53340000Y-56515000D01*
%TO.N,Net-(J1-Pin_2)*%
X50800000Y-55245000D02*
X55880000Y-50165000D01*
X55880000Y-50165000D02*
X60960000Y-50165000D01*
X50800000Y-66675000D02*
X50800000Y-55245000D01*
%TO.N,Net-(J1-Pin_3)*%
X68580000Y-85725000D02*
X68580000Y-66675000D01*
%TO.N,Net-(J1-Pin_2)*%
X71120000Y-85725000D02*
X71120000Y-66675000D01*
%TO.N,Net-(J1-Pin_1)*%
X73660000Y-85725000D02*
X73660000Y-66675000D01*
%TO.N,Net-(J1-Pin_3)*%
X68580000Y-104775000D02*
X68580000Y-85725000D01*
%TO.N,Net-(J1-Pin_2)*%
X71120000Y-85725000D02*
X71120000Y-104775000D01*
%TO.N,Net-(J1-Pin_1)*%
X73660000Y-104775000D02*
X73660000Y-85725000D01*
X73660000Y-123825000D02*
X73660000Y-104775000D01*
%TO.N,Net-(J1-Pin_2)*%
X71120000Y-123825000D02*
X71120000Y-104775000D01*
%TO.N,Net-(J1-Pin_3)*%
X68580000Y-123825000D02*
X68580000Y-104775000D01*
X53340000Y-85725000D02*
X53340000Y-66675000D01*
X53340000Y-104775000D02*
X53340000Y-85725000D01*
X53340000Y-123825000D02*
X53340000Y-104775000D01*
%TO.N,Net-(J1-Pin_2)*%
X50800000Y-85725000D02*
X50800000Y-66675000D01*
X50800000Y-104775000D02*
X50800000Y-85725000D01*
X50800000Y-123825000D02*
X50800000Y-104775000D01*
%TO.N,Net-(J1-Pin_1)*%
X48260000Y-53975000D02*
X54610000Y-47625000D01*
X48260000Y-66675000D02*
X48260000Y-53975000D01*
X54610000Y-47625000D02*
X60960000Y-47625000D01*
X48260000Y-85725000D02*
X48260000Y-66675000D01*
X48260000Y-104775000D02*
X48260000Y-85725000D01*
X48260000Y-123825000D02*
X48260000Y-104775000D01*
%TD*%
M02*
